<svg width="14" height="14" viewBox="0 0 14 14" fill="none" xmlns="http://www.w3.org/2000/svg">
<g id="edit 1" clip-path="url(#clip0_194_4382)">
<path id="Vector" d="M13.5984 8.52161C13.3957 8.52161 13.2315 8.68587 13.2315 8.88855V12.1467C13.2308 12.7543 12.7384 13.2468 12.1307 13.2475H1.8347C1.22695 13.2468 0.734596 12.7543 0.733879 12.1467V2.58464C0.734596 1.97689 1.22695 1.48453 1.8347 1.48382H5.09272C5.2954 1.48382 5.45966 1.31956 5.45966 1.11688C5.45966 0.914202 5.2954 0.749939 5.09272 0.749939H1.8347C0.821887 0.751086 0.00114669 1.57183 0 2.58464V12.1467C0.00114669 13.1595 0.821887 13.9803 1.8347 13.9814H12.1307C13.1435 13.9803 13.9642 13.1595 13.9653 12.1467V8.88869C13.9653 8.68601 13.8011 8.52161 13.5984 8.52161Z" fill="#4295E4"/>
<path id="Vector_2" d="M5.73828 6.59055L11.096 1.23267L12.8239 2.96058L7.46619 8.31846L5.73828 6.59055Z" fill="#4295E4"/>
<path id="Vector_3" d="M4.86328 9.19273L6.7728 8.66382L5.39219 7.2832L4.86328 9.19273Z" fill="#4295E4"/>
<path id="Vector_4" d="M13.3017 0.32443C12.9432 -0.0331923 12.3629 -0.0331923 12.0044 0.32443L11.6152 0.713587L13.3432 2.4415L13.7323 2.05234C14.0901 1.69386 14.0901 1.11349 13.7323 0.755011L13.3017 0.32443Z" fill="#4295E4"/>
</g>
<defs>
<clipPath id="clip0_194_4382">
<rect width="14" height="14" fill="white"/>
</clipPath>
</defs>
</svg>
