<svg width="26" height="26" viewBox="0 0 26 26" fill="none" xmlns="http://www.w3.org/2000/svg">
<g id="Frame">
<path id="Vector" d="M25.6128 5.34836C24.7082 5.74919 23.7365 6.02002 22.7149 6.14244C23.769 5.51172 24.5576 4.51903 24.9336 3.34961C23.9432 3.93785 22.8594 4.3519 21.7291 4.57377C20.969 3.76221 19.9622 3.22429 18.8651 3.04354C17.768 2.86278 16.6418 3.0493 15.6616 3.57413C14.6813 4.09896 13.9017 4.93275 13.4439 5.94604C12.9861 6.95932 12.8756 8.09542 13.1296 9.17794C11.1229 9.07719 9.15983 8.55562 7.36777 7.64709C5.57572 6.73856 3.99473 5.46337 2.7274 3.90427C2.29406 4.65177 2.0449 5.51844 2.0449 6.44144C2.04441 7.27235 2.24903 8.09054 2.6406 8.8234C3.03217 9.55627 3.59857 10.1811 4.28957 10.6426C3.4882 10.6171 2.70451 10.4006 2.00373 10.011V10.076C2.00365 11.2414 2.40677 12.3709 3.14468 13.2729C3.88259 14.1749 4.90985 14.7939 6.05215 15.0247C5.30875 15.2259 4.52935 15.2555 3.77282 15.1114C4.0951 16.1141 4.72289 16.991 5.5683 17.6192C6.4137 18.2474 7.43439 18.5956 8.48748 18.6149C6.6998 20.0182 4.49203 20.7795 2.21932 20.7761C1.81673 20.7762 1.41448 20.7527 1.01465 20.7057C3.32158 22.189 6.00702 22.9762 8.74965 22.9731C18.0338 22.9731 23.1092 15.2836 23.1092 8.61461C23.1092 8.39794 23.1038 8.17911 23.0941 7.96244C24.0813 7.2485 24.9335 6.36441 25.6106 5.35161L25.6128 5.34836Z" fill="white"/>
</g>
</svg>
